<?xml version="1.0" standalone="no"?>
<!DOCTYPE svg PUBLIC "-//W3C//DTD SVG 20010904//EN"
 "http://www.w3.org/TR/2001/REC-SVG-20010904/DTD/svg10.dtd">
<svg version="1.0" xmlns="http://www.w3.org/2000/svg"
 width="1408.000000pt" height="1408.000000pt" viewBox="0 0 1408.000000 1408.000000"
 preserveAspectRatio="xMidYMid meet">
<metadata>
Created by potrace 1.14, written by Peter Selinger 2001-2017
</metadata>
<g transform="translate(0.000000,1408.000000) scale(0.100000,-0.100000)"
fill="#000000" stroke="none">
<path d="M3266 11532 c-2 -2 -35 -4 -72 -5 -38 -2 -75 -6 -81 -10 -8 -5 -13
-3 -13 3 0 6 -5 8 -10 5 -6 -4 -34 -8 -63 -10 -130 -10 -201 -19 -357 -45 -36
-6 -81 -14 -100 -16 -54 -8 -75 -12 -77 -14 -2 -2 -7 -4 -13 -5 -5 -1 -13 -4
-17 -5 -5 -1 -12 -2 -17 -1 -4 1 -22 -3 -40 -8 -17 -6 -42 -12 -56 -15 -14 -2
-65 -16 -115 -31 -49 -15 -97 -28 -105 -30 -24 -6 -199 -71 -270 -100 -103
-43 -298 -144 -388 -202 -45 -29 -87 -53 -91 -53 -5 0 -11 -7 -15 -15 -3 -8
-10 -15 -16 -15 -9 0 -73 -42 -90 -60 -3 -3 -23 -19 -45 -35 -109 -81 -335
-294 -335 -315 0 -6 -7 -10 -15 -10 -8 0 -15 -3 -15 -8 0 -6 -34 -50 -98 -127
-10 -11 -44 -60 -77 -110 -33 -49 -62 -92 -65 -95 -16 -16 -140 -258 -140
-274 0 -8 -5 -16 -10 -18 -6 -2 -12 -14 -15 -27 -2 -12 -9 -29 -15 -35 -5 -7
-7 -16 -3 -19 3 -4 1 -7 -5 -7 -7 0 -11 -3 -10 -7 3 -10 -32 -114 -42 -128 -4
-5 -8 -17 -8 -25 -1 -8 -10 -46 -22 -85 -28 -96 -63 -262 -76 -365 -2 -14 -6
-43 -9 -65 -2 -22 -7 -75 -9 -117 -2 -43 -7 -82 -11 -88 -3 -5 -3 -10 2 -10 8
0 10 -49 2 -66 -7 -14 -4 -119 4 -131 4 -6 3 -14 -3 -18 -6 -4 -7 -12 -3 -18
4 -6 8 -43 9 -82 3 -89 16 -216 35 -320 6 -33 13 -71 15 -85 3 -14 7 -33 10
-42 5 -16 10 -40 20 -87 3 -14 7 -28 10 -33 3 -4 7 -18 10 -30 9 -38 12 -53
14 -55 2 -2 4 -7 5 -13 1 -5 4 -12 5 -15 1 -3 3 -8 5 -12 5 -20 18 -50 31 -74
7 -14 11 -28 9 -31 -7 -6 143 -305 156 -314 6 -3 14 -16 20 -27 9 -23 31 -59
39 -67 3 -3 23 -29 45 -57 21 -29 42 -53 46 -53 4 0 10 -8 13 -17 19 -57 397
-391 494 -436 12 -6 22 -14 22 -19 0 -4 4 -8 9 -8 8 0 99 -56 126 -77 6 -4 30
-19 55 -32 25 -13 68 -37 95 -52 55 -31 270 -137 325 -162 19 -8 60 -26 90
-39 30 -14 93 -39 140 -57 47 -18 99 -39 115 -46 17 -8 44 -17 60 -21 17 -4
35 -9 40 -13 6 -3 15 -6 20 -8 6 -1 35 -11 65 -22 30 -10 102 -34 160 -51 58
-17 116 -35 130 -40 14 -5 36 -12 50 -14 14 -3 75 -19 135 -36 61 -18 117 -33
125 -36 18 -4 171 -48 218 -63 18 -5 36 -11 40 -12 4 -1 12 -3 17 -5 10 -3 90
-25 110 -30 6 -1 55 -16 110 -34 55 -17 107 -32 115 -35 8 -2 16 -4 18 -5 1
-2 5 -3 10 -4 14 -3 237 -79 262 -89 14 -6 28 -11 32 -11 3 -1 10 -4 14 -8 4
-5 14 -8 22 -8 8 0 52 -18 98 -39 46 -22 84 -37 84 -34 0 3 6 0 14 -6 7 -6 35
-23 62 -37 110 -58 284 -201 284 -233 0 -6 3 -11 8 -11 7 0 20 -24 51 -90 27
-59 35 -203 16 -295 -33 -160 -167 -311 -355 -397 -41 -19 -185 -73 -202 -77
-5 0 -9 -1 -10 -2 -14 -4 -189 -36 -238 -43 -131 -20 -468 -27 -597 -12 -66 7
-136 16 -156 20 -7 2 -30 6 -52 10 -129 24 -294 88 -393 152 -65 43 -190 166
-212 209 -8 17 -22 42 -32 56 -27 41 -67 190 -77 289 -1 4 -2088 5 -2139 1
-11 -1 -13 -25 -8 -123 4 -68 9 -145 13 -173 3 -27 7 -63 8 -80 2 -16 4 -31 5
-32 2 -2 3 -11 4 -20 5 -45 22 -141 26 -145 1 -2 4 -15 6 -29 14 -83 101 -358
117 -370 5 -3 8 -9 8 -13 -1 -3 -1 -7 0 -8 0 -2 2 -10 4 -18 11 -57 199 -399
250 -456 5 -6 17 -22 25 -34 16 -24 81 -108 115 -150 37 -44 239 -245 288
-285 27 -22 56 -47 66 -55 49 -45 234 -171 341 -234 56 -33 379 -191 410 -201
3 -1 12 -5 20 -8 36 -15 310 -108 325 -111 6 -1 16 -5 23 -9 6 -5 12 -6 12 -3
0 3 11 1 25 -4 14 -5 36 -12 48 -14 12 -2 51 -11 86 -21 35 -9 76 -18 90 -20
14 -2 37 -7 51 -10 14 -3 39 -8 55 -11 17 -3 41 -7 55 -10 14 -3 41 -7 60 -9
19 -2 44 -6 55 -9 44 -11 267 -34 383 -40 29 -2 55 -5 58 -9 3 -3 18 -1 34 3
16 4 31 5 34 2 11 -11 86 -9 86 2 0 8 3 8 8 1 8 -12 271 -14 290 -2 7 5 12 3
12 -3 0 -6 5 -8 11 -4 6 3 45 8 86 9 72 3 147 10 226 21 21 3 53 7 70 9 46 5
108 14 137 20 13 2 42 7 65 11 46 7 70 12 70 14 0 1 11 3 25 6 131 22 404 101
585 169 154 58 406 178 507 242 21 12 39 23 42 23 12 0 325 217 346 240 3 3
30 25 60 50 144 118 348 339 465 505 27 39 52 72 55 75 3 3 13 20 22 38 10 17
26 47 35 64 10 18 21 35 24 38 9 7 106 203 115 232 3 13 14 41 24 63 24 56 44
108 46 122 1 7 9 36 18 65 29 93 34 112 40 143 4 17 9 41 12 55 3 14 7 40 7
58 1 17 4 32 7 32 3 0 6 17 8 37 1 20 5 48 8 62 8 33 13 523 6 536 -4 5 -7 30
-8 55 -1 25 -4 61 -7 80 -3 19 -8 58 -12 85 -3 28 -9 57 -12 65 -3 8 -7 24 -8
35 -1 11 -8 45 -15 75 -8 30 -15 58 -16 63 -1 4 -2 8 -4 10 -1 1 -3 9 -5 17
-5 25 -46 143 -61 177 -8 17 -14 34 -14 37 0 8 -77 164 -109 221 -24 43 -122
197 -131 205 -3 3 -25 32 -50 65 -79 105 -221 254 -295 309 -22 17 -47 37 -55
45 -19 20 -62 51 -180 129 -52 34 -99 66 -105 70 -5 4 -30 19 -55 32 -25 14
-47 27 -50 30 -3 3 -36 21 -75 40 -38 19 -71 38 -73 43 -2 4 -7 7 -11 7 -5 0
-74 32 -155 70 -80 39 -148 70 -151 70 -2 0 -28 11 -57 24 -29 13 -96 41 -148
61 -52 20 -104 40 -115 45 -35 15 -202 75 -220 80 -10 2 -72 25 -110 40 -11 4
-40 14 -65 21 -25 7 -51 17 -59 23 -8 6 -17 10 -20 9 -6 -2 -132 32 -161 44
-8 4 -17 7 -20 7 -34 8 -107 31 -115 36 -5 4 -28 11 -50 15 -22 4 -44 10 -50
13 -5 4 -15 7 -21 8 -7 1 -54 14 -105 29 -52 15 -98 28 -104 30 -5 1 -17 4
-25 7 -44 16 -158 48 -171 48 -9 0 -19 3 -23 8 -4 4 -11 7 -14 8 -4 0 -14 3
-22 6 -8 3 -53 18 -100 32 -47 15 -92 30 -100 33 -18 8 -14 6 -70 22 -25 7
-50 17 -56 22 -6 5 -19 10 -30 12 -23 5 -45 13 -101 38 -24 10 -46 19 -49 19
-4 0 -37 14 -73 32 -36 17 -68 32 -71 33 -16 2 -110 60 -110 67 0 4 -5 8 -11
8 -18 0 -117 100 -153 155 -30 46 -60 112 -73 160 -8 28 -8 214 0 245 3 14 8
34 10 45 27 119 126 258 243 341 61 44 212 119 256 128 13 3 39 10 58 16 19 6
46 13 60 15 14 2 36 7 50 10 105 23 182 29 375 29 99 0 209 -3 245 -7 75 -9
260 -46 275 -55 6 -4 17 -7 25 -9 23 -3 181 -72 190 -82 3 -3 17 -12 32 -20
15 -8 37 -22 47 -33 11 -10 23 -18 26 -18 23 0 185 -201 185 -230 0 -5 4 -18
9 -28 10 -17 22 -49 27 -67 11 -47 17 -78 21 -130 3 -33 7 -61 8 -63 3 -3
1751 -5 2056 -2 l66 0 -3 88 c-6 158 -18 279 -39 387 -9 44 -18 98 -21 120 -4
22 -10 42 -15 43 -5 2 -7 7 -4 12 3 4 -4 38 -16 75 -11 38 -22 75 -24 84 -13
55 -80 221 -143 351 -69 143 -212 371 -269 428 -7 7 -13 16 -13 20 0 4 -18 26
-40 50 -22 24 -40 45 -40 47 0 7 -216 225 -222 225 -3 0 -26 19 -51 43 -24 23
-57 51 -72 62 -16 11 -53 39 -83 63 -30 23 -58 42 -61 42 -4 0 -16 8 -27 18
-25 21 -82 62 -88 62 -2 0 -34 18 -71 41 -75 46 -295 160 -295 154 0 -3 -17 4
-37 15 -78 39 -287 116 -413 151 -25 7 -47 13 -50 14 -3 1 -23 7 -45 13 -22 6
-51 13 -65 16 -14 2 -26 5 -27 7 -2 1 -12 3 -23 4 -11 1 -21 3 -22 5 -5 3 -28
7 -153 29 -171 29 -193 32 -255 37 -30 3 -77 7 -105 10 -56 5 -594 11 -599 6z"/>
<path d="M7516 11397 c2 -16 6 -32 9 -37 3 -5 2 -11 -2 -13 -10 -6 -9 -449 1
-465 3 -6 3 -13 -1 -15 -10 -6 -9 -449 0 -464 4 -7 4 -14 0 -16 -10 -6 -9
-449 1 -465 3 -6 3 -13 -1 -15 -10 -6 -9 -449 0 -464 4 -7 4 -14 0 -16 -10 -6
-9 -769 0 -785 4 -6 4 -13 0 -15 -10 -6 -9 -449 0 -464 4 -7 4 -14 0 -16 -10
-6 -9 -449 1 -465 3 -6 3 -13 -1 -15 -10 -6 -9 -449 0 -464 4 -7 4 -14 0 -16
-10 -6 -9 -449 1 -465 3 -6 3 -13 -1 -15 -10 -6 -9 -449 0 -464 4 -7 4 -14 0
-16 -10 -6 -9 -449 1 -465 3 -6 3 -13 -1 -15 -10 -6 -9 -449 0 -464 4 -7 4
-14 0 -16 -10 -6 -9 -449 1 -465 3 -6 3 -13 -1 -15 -10 -6 -9 -449 0 -464 4
-7 4 -14 0 -16 -10 -6 -9 -449 1 -465 3 -6 3 -13 -1 -15 -10 -6 -9 -449 0
-464 4 -7 4 -14 0 -16 -6 -4 -7 -210 -3 -442 0 -5 -1 -59 -2 -118 -2 -60 -1
-112 2 -116 3 -4 479 -7 1058 -7 l1052 0 1 26 c0 14 1 634 1 1378 l0 1353 255
-1 c140 -1 256 0 258 2 2 2 56 1 120 -2 64 -3 118 -4 120 -2 2 3 557 4 573 1
4 -1 12 0 17 1 6 1 60 3 120 6 141 5 222 11 235 19 6 3 10 1 10 -5 0 -6 5 -8
13 -3 6 4 21 8 32 10 11 1 43 4 70 7 28 2 50 5 50 6 0 1 11 3 25 5 47 6 95 14
180 31 47 9 94 18 105 20 11 2 47 11 80 20 33 9 67 18 75 19 8 2 66 20 127 40
62 19 115 35 118 35 3 -1 18 6 33 13 15 8 52 25 82 37 78 32 182 79 200 90 8
5 30 16 48 25 18 8 46 24 63 35 16 12 29 18 29 13 0 -4 4 -3 8 2 4 6 17 16 30
23 12 6 32 18 45 25 12 6 24 14 27 17 3 3 25 18 50 34 49 32 184 132 211 156
9 8 38 33 65 55 82 69 196 186 309 319 54 63 167 225 210 301 16 28 32 52 35
55 3 3 18 30 33 60 15 30 32 62 36 70 64 113 178 418 216 580 2 8 4 15 5 15 1
0 4 11 6 25 3 14 14 65 25 113 12 48 19 94 16 101 -3 8 -2 17 3 22 10 10 19
74 35 229 1 17 4 30 5 30 11 0 17 462 7 600 -12 161 -17 210 -23 235 -4 14 -8
41 -10 60 -1 19 -6 49 -9 65 -3 17 -9 46 -12 65 -4 28 -36 159 -77 320 -2 8
-16 49 -31 90 -15 41 -34 95 -42 120 -21 62 -149 337 -164 350 -3 3 -13 21
-23 40 -31 61 -176 280 -210 316 -6 7 -24 29 -41 49 -16 20 -40 48 -52 62 -13
13 -23 29 -23 34 0 6 -4 7 -10 4 -5 -3 -10 -2 -10 3 0 18 -212 217 -310 292
-25 19 -47 37 -50 40 -8 9 -213 146 -230 154 -8 4 -37 20 -65 36 -53 31 -273
141 -290 145 -5 1 -23 8 -40 15 -44 18 -158 62 -170 65 -5 1 -17 5 -25 8 -8 4
-64 20 -125 37 -165 46 -178 50 -205 54 -14 2 -36 7 -50 10 -14 3 -37 8 -52
11 -16 3 -38 7 -50 9 -80 16 -203 32 -403 52 -38 4 -894 8 -1901 9 l-1831 2 3
-30z m3409 -1840 c47 -9 88 -17 115 -22 14 -3 38 -8 53 -10 51 -10 181 -56
247 -89 64 -32 150 -83 160 -95 3 -4 24 -22 48 -40 36 -28 140 -142 170 -187
31 -46 102 -188 107 -215 2 -10 9 -28 16 -41 7 -13 11 -23 10 -23 -2 0 2 -19
8 -43 15 -52 22 -95 27 -142 1 -19 3 -35 4 -35 5 0 10 -91 11 -190 0 -104 -5
-189 -17 -245 -3 -14 -7 -38 -9 -54 -17 -113 -101 -316 -170 -411 -19 -27 -30
-40 -99 -115 -17 -19 -61 -56 -96 -83 -36 -26 -71 -52 -78 -58 -11 -9 -127
-65 -187 -89 -31 -13 -112 -37 -195 -57 -8 -2 -33 -6 -55 -9 -22 -2 -62 -8
-90 -12 -27 -4 -71 -8 -97 -7 -27 0 -48 -3 -48 -8 0 -4 -8 -3 -18 2 -10 5 -24
6 -32 1 -7 -4 -24 -4 -37 1 -13 5 -22 6 -20 1 6 -8 -125 -7 -148 2 -8 3 -15 1
-15 -5 0 -6 -7 -6 -20 1 -11 6 -20 7 -20 3 0 -4 -20 -8 -44 -8 -24 0 -42 3
-39 7 2 5 -8 3 -24 -3 -15 -6 -30 -10 -33 -9 -3 2 -15 6 -28 11 -13 5 -21 6
-19 1 6 -9 -117 -7 -132 2 -6 4 -11 4 -11 -1 0 -9 -84 -8 -99 2 -6 3 -11 3
-11 -2 0 -4 -11 -8 -25 -8 -14 0 -25 3 -25 7 0 4 -6 5 -13 2 -24 -9 -87 -10
-87 -2 0 5 -5 6 -10 3 -14 -9 -135 -9 -149 -1 -6 4 -11 3 -11 -2 0 -13 -32
-10 -46 4 -9 7 -12 312 -12 1148 l1 1138 631 -5 c347 -3 645 -7 661 -10z"/>
</g>
</svg>
